<svg id="图层_1" data-name="图层 1" xmlns="http://www.w3.org/2000/svg" viewBox="0 0 40 40"><title>管理控制台</title><rect x="2" y="2" width="4.18" height="4.18" rx="2.09" ry="2.09"/><rect x="33.82" y="2" width="4.18" height="4.18" rx="2.09" ry="2.09"/><rect x="23.21" y="2" width="4.18" height="4.18" rx="2.09" ry="2.09"/><rect x="12.6" y="2" width="4.19" height="4.18" rx="2.09" ry="2.09"/><rect x="2" y="33.81" width="4.18" height="4.19" rx="2.09" ry="2.09"/><rect x="33.82" y="33.81" width="4.18" height="4.19" rx="2.09" ry="2.09"/><rect x="23.21" y="33.81" width="4.18" height="4.19" rx="2.09" ry="2.09"/><rect x="12.6" y="33.81" width="4.19" height="4.19" rx="2.09" ry="2.09"/><rect x="2" y="23.21" width="4.18" height="4.19" rx="2.09" ry="2.09"/><rect x="33.82" y="23.21" width="4.18" height="4.19" rx="2.09" ry="2.09"/><rect x="23.21" y="23.21" width="4.18" height="4.19" rx="2.09" ry="2.09"/><rect x="12.6" y="23.21" width="4.19" height="4.19" rx="2.09" ry="2.09"/><rect x="2" y="12.6" width="4.18" height="4.18" rx="2.09" ry="2.09"/><rect x="33.82" y="12.6" width="4.18" height="4.18" rx="2.09" ry="2.09"/><rect x="23.21" y="12.6" width="4.18" height="4.18" rx="2.09" ry="2.09"/><rect x="12.6" y="12.6" width="4.19" height="4.18" rx="2.09" ry="2.09"/></svg>