<svg id="图层_1" data-name="图层 1" xmlns="http://www.w3.org/2000/svg" viewBox="0 0 40 40"><title>人工智能中心</title><path d="M12,22.55a.56.56,0,0,0,0,.12.5.5,0,0,0,0,.13l.06.11.06.11.08.11.09.09.09.09.1.07.11.07.12.06.13,0,.12,0,.21,0H26.59a1.51,1.51,0,0,0,.52-.11,1.42,1.42,0,0,0,.43-.29,1.55,1.55,0,0,0,.29-.43,1.51,1.51,0,0,0,.11-.52,1.35,1.35,0,0,0-1.34-1.33H13.33l-.14,0-.12,0A.3.3,0,0,0,13,21l-.13,0-.11.06a.41.41,0,0,0-.11.07l-.11.08-.09.08-.09.1-.08.1-.06.11-.06.11A20954663166135.21,20954663166135.21,0,0,1,12,22s0,.08,0,.15v.25C12,22.46,12,22.5,12,22.55Z"/><path d="M23,27.48H16.88a1.23,1.23,0,0,0-1.23,1.24,1.24,1.24,0,0,0,.36.87,1.23,1.23,0,0,0,.87.36H23a1.24,1.24,0,0,0,0-2.47Z"/><path d="M35.54,19.64V18.33a5.2,5.2,0,0,0-5.19-5.17l-9.17.05,0-1.05A4.2,4.2,0,0,0,24,9.21a4.25,4.25,0,0,0-3-5.12A4.38,4.38,0,0,0,19.94,4a4.19,4.19,0,0,0-1.21,8.19l.05,1H9.65a5.19,5.19,0,0,0-5.18,5.19l0,1.26a4.81,4.81,0,0,0,0,9.6v2a4.93,4.93,0,0,0,5.18,4.88H30.36a4.93,4.93,0,0,0,5.18-4.88l0-1.94A4.79,4.79,0,0,0,40,24.41,4.73,4.73,0,0,0,35.54,19.64Zm0,7.18h0V22l0,0a2.3,2.3,0,0,1,2,2.35,2.44,2.44,0,0,1-1.91,2.42ZM18.67,6.88a1.76,1.76,0,0,1,1.21-.56H20A1.74,1.74,0,0,1,21.69,8v.13a1.76,1.76,0,0,1-1.8,1.68h0a1.75,1.75,0,0,1-1.21-2.93ZM9.18,33.56l-.29-.07-.11,0-.25-.1L8.4,33.3l-.2-.12a2.85,2.85,0,0,1-.68-.6l0,0h0l0-.14-.08-.1-.14-.25L7.18,32a2.06,2.06,0,0,1-.1-.25c0-.07,0-.13-.08-.26a2.6,2.6,0,0,1-.06-.3v-.07h0V18.25c0-.1,0-.19,0-.32s0-.17.06-.3,0-.14.1-.28a1.22,1.22,0,0,1,.07-.17L7.25,17l.11-.19.11-.15,0,0h0l.1-.05.18-.2a.7.7,0,0,0,.14-.17l.11,0,.2-.15a2.44,2.44,0,0,1,.34-.18,2.53,2.53,0,0,1,.75-.23l.4,0h20.7a2.73,2.73,0,0,1,2.73,2.73V31.17a.42.42,0,0,1,0,.24s0,.09-.06.18a2,2,0,0,1-.07.23,1.89,1.89,0,0,1-.09.21,2.61,2.61,0,0,1-.87,1l-.19.13-.2.11a3,3,0,0,1-.66.23l-.16,0-.2,0H9.64a2.3,2.3,0,0,1-.35,0ZM2.49,24.41a2.32,2.32,0,0,1,2-2.35h0l0,4.74A2.32,2.32,0,0,1,2.49,24.41Z"/></svg>