<svg id="图层_1" data-name="图层 1" xmlns="http://www.w3.org/2000/svg" viewBox="0 0 40 40"><title>分析引擎</title><path d="M21.34,29.64a2.05,2.05,0,0,0-1.42.61,2,2,0,0,0-.58,1.44,2,2,0,0,0,2,2,2,2,0,0,0,2-2A2,2,0,0,0,21.34,29.64Z"/><path d="M28.52,29.47a2.22,2.22,0,1,0,1.54,3.77,2.14,2.14,0,0,0,.63-1.55A2.19,2.19,0,0,0,28.52,29.47Z"/><path d="M35.69,29.3a2.39,2.39,0,0,0,0,4.77A2.37,2.37,0,0,0,38,31.69,2.37,2.37,0,0,0,35.69,29.3Z"/><path d="M32.06,12.89v0l0-.14a.64.64,0,0,0,0-.07.68.68,0,0,1,0-.12l0,0a.86.86,0,0,0-.11-.19l-.09-.13-.05-.05,0,0,0-.05,0,0-.12-.08a.86.86,0,0,0-.2-.13h0l0,0h0l-.08,0H31a.35.35,0,0,0-.14,0H23.84a1.34,1.34,0,0,0,0,2.67h3.91L20.3,22.61l-6.89-6.39L6.75,23.61a1.32,1.32,0,0,0-.34,1,1.33,1.33,0,0,0,1.33,1.26,1.33,1.33,0,0,0,1-.44L13.58,20l6.9,6.39,8.93-9.92V19.9a1.33,1.33,0,0,0,2.66,0V13S32.06,12.93,32.06,12.89Z"/><path d="M14.41,35.28H5.86a1.23,1.23,0,0,1-1.23-1.23V6A1.23,1.23,0,0,1,5.86,4.72H34A1.23,1.23,0,0,1,35.19,6v18.6h0a1.32,1.32,0,1,0,2.64,0h0V6A3.89,3.89,0,0,0,34,2.06H5.86A3.89,3.89,0,0,0,2,6v28.1a3.89,3.89,0,0,0,3.89,3.89h8.55a1.33,1.33,0,1,0,0-2.66Z"/></svg>