<svg id="图层_1" data-name="图层 1" xmlns="http://www.w3.org/2000/svg" viewBox="0 0 40 40"><title>后台管理</title><path d="M38.57,26.4a2.75,2.75,0,0,0,0-.81l1.08-1.3a1.8,1.8,0,0,0,.16-2l-1.53-2.67a1.81,1.81,0,0,0-1.56-.89,1.5,1.5,0,0,0-.3,0l-1.53.3a2.73,2.73,0,0,0-.72-.37l-.59-1.58a1.81,1.81,0,0,0-1.69-1.16H28.77a1.82,1.82,0,0,0-1.68,1.17l-.5,1.48A2.79,2.79,0,0,0,26,19l-1.67-.28a1.4,1.4,0,0,0-.29,0,1.82,1.82,0,0,0-1.56.89L20.9,22.25a1.82,1.82,0,0,0,.17,2l1,1.18a2.68,2.68,0,0,0,0,.8L21,27.54a1.82,1.82,0,0,0-.17,2l1.54,2.67a1.82,1.82,0,0,0,1.56.89h.3l1.53-.31a2.92,2.92,0,0,0,.72.38l.59,1.58A1.82,1.82,0,0,0,28.77,36h3.08a1.81,1.81,0,0,0,1.69-1.17l.5-1.48a2.56,2.56,0,0,0,.68-.44l1.66.28a1.5,1.5,0,0,0,.3,0,1.79,1.79,0,0,0,1.56-.9l1.53-2.66a1.79,1.79,0,0,0-.17-2Zm-2.42-.93a7.22,7.22,0,0,1,0,.93v.78l1.32,1.6L36.36,30.7l-2.19-.31-.53.37a6.94,6.94,0,0,1-.8.46l-.68.38-.73,1.95H29.2l-.82-2-.59-.28a9,9,0,0,1-.79-.46l-.6-.41-2.13.35-1.11-2L24.53,27l-.05-.65a7.06,7.06,0,0,1,0-.92v-.78l-1.33-1.6,1.11-1.92,2.2.31.53-.37a7.16,7.16,0,0,1,.8-.46l.68-.38.72-1.95h2.22l.83,2,.58.28a5.73,5.73,0,0,1,.8.46l.67.4,2.06-.34L37.45,23l-1.36,1.74Z"/><path d="M30.31,22.31a3.63,3.63,0,1,0,.05,0Zm0,5.21a1.59,1.59,0,1,1,1.59-1.59v0A1.59,1.59,0,0,1,30.31,27.52Z"/><path d="M10.66,36a10.71,10.71,0,0,1-7.57-3.15,10.83,10.83,0,0,1,0-15.23A10.64,10.64,0,0,1,8.16,14.7l.25-.06.05-.26a12.26,12.26,0,0,1,.78-2.52A12.59,12.59,0,0,1,12,7.79,12.75,12.75,0,0,1,31.28,9.2a1.44,1.44,0,0,1-.3,2,1.41,1.41,0,0,1-.85.27A1.5,1.5,0,0,1,29,10.91,9.93,9.93,0,0,0,11.12,16a1.42,1.42,0,0,1-1.28,1.31A7.91,7.91,0,0,0,5.1,30.73a7.76,7.76,0,0,0,5.54,2.33H18a1.38,1.38,0,0,1,1.37,1.21,1.51,1.51,0,0,1-.91,1.55,1.49,1.49,0,0,1-.66.16Z"/></svg>