<svg id="图层_1" data-name="图层 1" xmlns="http://www.w3.org/2000/svg" viewBox="0 0 40 40"><title>审查日志</title><path d="M25.09,19.17H17.4a1.32,1.32,0,0,0,0,2.63h7.69a1.32,1.32,0,0,0,0-2.63Z"/><path d="M21.11,24.88H17.4a1.32,1.32,0,0,0,0,2.63h3.71a1.32,1.32,0,0,0,0-2.63Z"/><path d="M16.47,35.22H7.52a2.77,2.77,0,0,1-2.75-2.77v-23A2.75,2.75,0,0,1,7.52,6.7H13.2v.82a1.31,1.31,0,1,0,2.62,0V6.7h8v.82a1.32,1.32,0,0,0,2.63,0V6.7h5.83A2.76,2.76,0,0,1,35,9.46h0v12.3A1.42,1.42,0,0,0,36.58,23a1.43,1.43,0,0,0,1.23-1.59V9.11a5.24,5.24,0,0,0-5.23-5.22H26.42V3.31a1.32,1.32,0,0,0-2.63,0v.58h-8V3.31a1.31,1.31,0,1,0-2.62,0v.58h-6A5.22,5.22,0,0,0,2,9.09V32.73A5.23,5.23,0,0,0,7.22,38h9.61a1.4,1.4,0,0,0-.36-2.74Z"/><path d="M37.66,35.73l-.14-.13L30,29.08l.65-1.21A10.85,10.85,0,0,0,32,23.25,11.27,11.27,0,0,0,21.29,11.47l-.64-.05-.6,0A11.17,11.17,0,0,0,9.7,20.72,11.14,11.14,0,0,0,27,31.84l1.08-.77,7.67,6.61a1.3,1.3,0,0,0,.78.32h0A1.39,1.39,0,0,0,38,36.71,1.36,1.36,0,0,0,37.66,35.73ZM29.11,23.2a8.48,8.48,0,1,1-8.06-9h.2A8.44,8.44,0,0,1,29.11,23.2Z"/></svg>