<svg id="图层_1" data-name="图层 1" xmlns="http://www.w3.org/2000/svg" viewBox="0 0 40 40"><title>数据服务</title><path d="M39.57,19l-3.22-4,0,0a1.19,1.19,0,0,0-1-.53,1.23,1.23,0,0,0-.92,2.07h0l2,2.47H19.77L30.29,7.88v3.18h0s0,0,0,0a1.25,1.25,0,1,0,2.49,0s0,0,0-.08V5.94a2,2,0,0,0-2-2H25.6a1.25,1.25,0,1,0,0,2.49h2.62L16.35,19h-6.3a5.11,5.11,0,1,0,0,2.49l6.23,0L29,33.56H25.65a1.25,1.25,0,0,0,0,2.49h0l5.11,0a2,2,0,0,0,2-2v-5s0,0,0-.08a1.24,1.24,0,0,0-1.24-1.24,1.23,1.23,0,0,0-1.23,1.18h0V29h0v2.38l-10.5-9.87H35.63l-1.91,1.54v0a1.23,1.23,0,0,0,.75,2.22,1.21,1.21,0,0,0,.79-.31h0l4-3.21A2,2,0,0,0,39.57,19ZM5.09,22.89a2.62,2.62,0,0,1,0-5.23h.12a2.63,2.63,0,0,1,2.5,2.62A2.62,2.62,0,0,1,5.09,22.89Z"/></svg>