<svg id="图层_1" data-name="图层 1" xmlns="http://www.w3.org/2000/svg" viewBox="0 0 40 40"><title>数据源管理</title><g id="OpenStudio"><path d="M20,40c-8.53,0-15.24-2.87-16-6.82l0-.13V7l0-.12C4.76,2.87,11.47,0,20,0S35.25,2.87,36,6.82l0,.1V33.05l0,.13C35.24,37.13,28.52,40,20,40ZM6.31,31.84c0,.28,0,.58,0,.78v.16c.62,1.9,5.28,4.52,13.69,4.52s13.07-2.62,13.69-4.49a8.76,8.76,0,0,0,0-.94v-3.8l-.12.09a11.58,11.58,0,0,1-2.06,1.21c-.51.24-1,.45-1.51.63a30,30,0,0,1-10,1.51A30,30,0,0,1,10,30q-.74-.27-1.5-.63a11,11,0,0,1-2.06-1.21l-.12-.09Zm14-3a30.78,30.78,0,0,0,7.51-.94,18.13,18.13,0,0,0,1.84-.59c3.32-1.25,4-2.63,4.08-3V19.6l-.12.09a12.62,12.62,0,0,1-2.06,1.21c-.48.23-1,.44-1.51.63a30,30,0,0,1-10,1.56,29.83,29.83,0,0,1-10-1.57c-.52-.19-1-.4-1.51-.62a12.08,12.08,0,0,1-2.07-1.22l-.12-.09v4.7c.12.42.75,1.8,4.08,3.05.56.21,1.2.41,1.84.59a30.84,30.84,0,0,0,7.51.94h.55Zm0-8.49a30.67,30.67,0,0,0,7.49-.93c.66-.18,1.28-.38,1.84-.59,3.32-1.25,4-2.63,4.08-3V11.65l-.12.09A12.21,12.21,0,0,1,31.52,13c-.47.22-1,.43-1.51.63a30,30,0,0,1-10,1.56,30.19,30.19,0,0,1-10-1.55c-.54-.2-1-.41-1.51-.63a12.62,12.62,0,0,1-2.06-1.21l-.12-.09v4.15c.12.42.75,1.8,4.07,3a19.07,19.07,0,0,0,1.84.59,30.69,30.69,0,0,0,7.5.93h.58Zm0-7.93a30.83,30.83,0,0,0,7.51-.93c.63-.17,1.25-.37,1.84-.59,2.64-1,3.83-2.21,4.07-3a1,1,0,0,0,0-.68C33.15,5.41,28.42,2.7,20,2.7S6.86,5.41,6.3,7.24a1,1,0,0,0,0,.68c.24.8,1.44,2,4.07,3,.54.2,1.18.41,1.84.59a30.91,30.91,0,0,0,7.52.93h.55Z"/></g></svg>