<svg id="图层_1" data-name="图层 1" xmlns="http://www.w3.org/2000/svg" viewBox="0 0 40 40"><defs><style>.cls-1{fill:none;stroke:#000;stroke-miterlimit:10;stroke-width:2.8px;}</style></defs><title>数据管理</title><path d="M17.41,38a15.4,15.4,0,0,1,0-30.8,1.4,1.4,0,0,1,0,2.8A12.6,12.6,0,1,0,30,22.61a1.4,1.4,0,0,1,2.8,0A15.42,15.42,0,0,1,17.41,38Z"/><path d="M31.41,24h-10a5.4,5.4,0,0,1-5.4-5.4v-10h2.8v10a2.6,2.6,0,0,0,2.6,2.6h10Z"/><path class="cls-1" d="M36.81,16.7l-10.35,0a3,3,0,0,1-3-3l0-10.34"/><path d="M37.8,13.22a1.4,1.4,0,0,0-2.72.66,12.15,12.15,0,0,1,.33,2.82,1.4,1.4,0,1,0,2.8,0A14.53,14.53,0,0,0,37.8,13.22Z"/><path d="M35.31,7.9a14.84,14.84,0,0,0-11.87-6,1.4,1.4,0,0,0,0,2.8,11.86,11.86,0,0,1,9.62,4.84,1.42,1.42,0,0,0,1.13.57A1.36,1.36,0,0,0,35,9.86,1.4,1.4,0,0,0,35.31,7.9Z"/></svg>