<svg id="图层_1" data-name="图层 1" xmlns="http://www.w3.org/2000/svg" viewBox="0 0 40 40"><title>1123-内页icon整体大小调整-40px的副本</title><path d="M32.08,2H9.91A5.94,5.94,0,0,0,4,7.93v2.56H3.4a1.4,1.4,0,0,0,0,2.8H4V18.6H3.4a1.4,1.4,0,0,0,0,2.8H4v5.31H3.4a1.4,1.4,0,0,0,0,2.8H4v2.56A5.94,5.94,0,0,0,9.91,38H32.07A6,6,0,0,0,38,32.06V7.93A5.93,5.93,0,0,0,32.08,2Zm3.11,30.06a3.11,3.11,0,0,1-3.12,3.12H9.91a3.16,3.16,0,0,1-2.21-.92,3.13,3.13,0,0,1-.91-2.2V29.51h1a1.4,1.4,0,0,0,0-2.8h-1V21.4h1a1.4,1.4,0,1,0,0-2.8h-1V13.29h1a1.4,1.4,0,0,0,0-2.8h-1V7.93A3.11,3.11,0,0,1,9.91,4.81H32.07a3.18,3.18,0,0,1,2.21.92,3.13,3.13,0,0,1,.91,2.21Z"/><path d="M26.66,22.21H17.28a3.77,3.77,0,0,0,0,7.54h9.38a3.77,3.77,0,0,0,0-7.54Zm0,5H17.28a1.21,1.21,0,1,1,0-2.41h9.38a1.21,1.21,0,0,1,0,2.41Z"/><path d="M22,21.17a5.46,5.46,0,1,0-5.45-5.45A5.47,5.47,0,0,0,22,21.17Zm0-8.28a2.83,2.83,0,1,1-2.82,2.81A2.82,2.82,0,0,1,22,12.89Z"/></svg>