<svg id="图层_1" data-name="图层 1" xmlns="http://www.w3.org/2000/svg" viewBox="0 0 40 40"><title>文档</title><path d="M19.37,12.59h8.86a1.29,1.29,0,0,0,0-2.58H19.37a1.29,1.29,0,0,0,0,2.58Z"/><path d="M19.37,19.39h8.86a1.29,1.29,0,0,0,0-2.58H19.37a1.29,1.29,0,0,0,0,2.58Z"/><path d="M35.69,25.17h-.52l.1-20.77A2.35,2.35,0,0,0,33,2H14.16A2.35,2.35,0,0,0,11.85,4.4V25.27l-4.48-.05L7.43,9v-.2H8.79a1.4,1.4,0,0,0,0-2.8H7.07a1.33,1.33,0,0,0-.28,0A2.34,2.34,0,0,0,4.73,8.4l0,16.86-.43-.09A2.35,2.35,0,0,0,2,27.54V35.7a2.35,2.35,0,0,0,2.31,2.37H35.69A2.35,2.35,0,0,0,38,35.7V27.54A2.34,2.34,0,0,0,35.69,25.17ZM14.6,8.12V4.77l18,.05,0,20.45-2.08-.1H27.12l-.17.2a5.32,5.32,0,0,1-1.65,1.78,5.12,5.12,0,0,1-5.71,0,5.73,5.73,0,0,1-1.69-1.8l-3.39-.19ZM35.25,35.35l-30.6-.1.1-7.33.12.07,11.54,0a7.64,7.64,0,0,0,6,2.88A7.79,7.79,0,0,0,28.51,28l1.91,0,4.83,0Z"/></svg>