<svg id="图层_1" data-name="图层 1" xmlns="http://www.w3.org/2000/svg" viewBox="0 0 40 40"><title>埋点</title><path d="M18.52,17.9,19.23,29a.72.72,0,0,0,.77.62h0a.72.72,0,0,0,.77-.62l.71-11.12a8,8,0,1,0-3,0ZM20,4.59A5.43,5.43,0,1,1,14.58,10,5.43,5.43,0,0,1,20,4.59Z"/><path d="M27.1,23a1.3,1.3,0,0,0-1.54,1h0a1.22,1.22,0,0,0,1,1.35c5.85,1,9,3.18,9,4.82,0,2.54-6.67,5.37-15.6,5.37S4.4,32.74,4.4,30.2c0-1.64,3.15-3.81,9-4.82a1.22,1.22,0,0,0,1-1.35h0a1.31,1.31,0,0,0-1.55-1C6.12,24.17,2,26.88,2,30.2,2,35.27,11.26,38,20,38s18-2.74,18-7.81C38,26.88,33.88,24.18,27.1,23Z"/><path d="M13.53,28.37a1.17,1.17,0,0,0,1.08-1.24h0a1.39,1.39,0,0,0-1.67-.93c-2.82.51-6.29,1.56-6.29,3.7,0,3.37,8.39,4.27,13.35,4.27s13.35-.9,13.35-4.27c0-2.14-3.47-3.19-6.29-3.7a1.39,1.39,0,0,0-1.67.93,1.17,1.17,0,0,0,1.08,1.25c2.93.51,4.19,1.25,4.31,1.48-.24.59-3.8,2.07-10.78,2.07s-10.54-1.48-10.78-2C9.34,29.63,10.6,28.88,13.53,28.37Z"/></svg>