<svg id="图层_1" data-name="图层 1" xmlns="http://www.w3.org/2000/svg" viewBox="0 0 40 40"><title>API网关</title><path d="M12.13,15.74,9,23.88a1.1,1.1,0,0,0,.12,1,1.08,1.08,0,0,0,.9.48,1.1,1.1,0,0,0,1-.72l.64-1.85,3.82,0,.69,1.89a1.1,1.1,0,0,0,1,.72h0a1.08,1.08,0,0,0,.9-.48,1.07,1.07,0,0,0,.12-1l-3.13-8.14a1.61,1.61,0,0,0-3,0ZM14.56,20l.31.85-1.81.05h-.65l1.22-3.31Z"/><path d="M28.6,18.09c0-2.24-1.31-3.37-3.9-3.37H21.33a1.11,1.11,0,0,0-1.11,1.11v8.45a1.09,1.09,0,0,0,1.09,1.09h0a1.09,1.09,0,0,0,1.09-1.09l-.05-2.79h2.29C27.28,21.49,28.6,20.34,28.6,18.09ZM26,19.16a2.29,2.29,0,0,1-1.43.34l-2.12.05h0V16.7h2.14a2.33,2.33,0,0,1,1.43.35,1.21,1.21,0,0,1,.39,1A1.32,1.32,0,0,1,26,19.16Z"/><path d="M31.32,25.37a1.09,1.09,0,0,0,1.09-1.09V15.81a1.1,1.1,0,0,0-2.19,0v8.47a1.09,1.09,0,0,0,1.09,1.09Z"/><path d="M23.32,32.78a2.34,2.34,0,0,0-.24-.32,1.24,1.24,0,0,0-.86-.37,1.14,1.14,0,0,0-.63.23,13.08,13.08,0,0,1-4.17.7l-.83,0A13.18,13.18,0,0,1,4.46,20.87a13.07,13.07,0,0,1,.77-5.29,1.18,1.18,0,0,0-.58-1.46A1.21,1.21,0,0,0,4.07,14,1.22,1.22,0,0,0,3,14.74,15.39,15.39,0,0,0,14.68,35.21a15.87,15.87,0,0,0,2.74.25,4.46,4.46,0,0,0,1-.1h.21l-.5.53a1.17,1.17,0,0,0,0,1.75,1.18,1.18,0,0,0,1.75,0l3.15-3.3a1.23,1.23,0,0,0,.37-.5.63.63,0,0,0,0-.19l0-.14a.51.51,0,0,0,0-.13l0-.1A1.33,1.33,0,0,0,23.32,32.78Z"/><path d="M32.53,27.86A5.17,5.17,0,0,0,31,27.6a5,5,0,0,0-5,5,5.17,5.17,0,0,0,.26,1.53,5,5,0,1,0,8.37-5A5.11,5.11,0,0,0,32.53,27.86ZM31,35.13a2.51,2.51,0,0,1-1.32-.39,2.55,2.55,0,0,1-1.19-2l0-.13A2.54,2.54,0,0,1,31,30.07l.22,0a2.49,2.49,0,0,1,1.92,1.18A2.51,2.51,0,0,1,31,35.13Z"/><path d="M37.75,17.31A15.38,15.38,0,0,0,25.32,4.87a15.85,15.85,0,0,0-2.74-.24,5.29,5.29,0,0,0-1.06.09h-.21l.58-.61a1.17,1.17,0,0,0,0-1.75A1.24,1.24,0,0,0,21,2a1.22,1.22,0,0,0-.89.41L16.88,5.78a1.48,1.48,0,0,0-.31.54,1,1,0,0,0-.05.41,1.36,1.36,0,0,0,.09.36l0,.1a.49.49,0,0,0,0,.11,1.21,1.21,0,0,0,1.05.63,1,1,0,0,0,.39-.07,12.89,12.89,0,0,1,4.47-.8l.82,0A13.17,13.17,0,0,1,35.54,19.21a12.88,12.88,0,0,1-.78,5.29A1.2,1.2,0,0,0,35.35,26a1.06,1.06,0,0,0,.58.16,1.21,1.21,0,0,0,1.12-.78A15.23,15.23,0,0,0,37.75,17.31Z"/><path d="M7.47,12.14A4.86,4.86,0,0,0,9,12.4a5,5,0,0,0,5-5,4.76,4.76,0,0,0-.26-1.52,5,5,0,0,0-1.32-2.11,5,5,0,1,0-4.95,8.37ZM9,4.88a2.5,2.5,0,0,1,1.32.38,2.57,2.57,0,0,1,1.19,2l0,.13A2.53,2.53,0,0,1,9,9.93l-.22,0A2.55,2.55,0,0,1,6.47,7.4,2.53,2.53,0,0,1,9,4.88Z"/></svg>