<svg id="图层_1" data-name="图层 1" xmlns="http://www.w3.org/2000/svg" viewBox="0 0 40 40"><title>开发中心</title><path d="M13.22,10.13a1.44,1.44,0,0,0,.45-1.05,1.49,1.49,0,0,0-1.49-1.5A1.5,1.5,0,0,0,11.12,8L.55,18.78a1.77,1.77,0,0,0,0,2.44L11.12,32a1.45,1.45,0,0,0,1.06.45,1.49,1.49,0,0,0,1.49-1.5,1.44,1.44,0,0,0-.45-1.05L3.6,20.45a.63.63,0,0,1,0-.9Z"/><path d="M39.44,18.79,28.88,8a1.5,1.5,0,0,0-1.06-.44,1.49,1.49,0,0,0-1.49,1.5,1.44,1.44,0,0,0,.45,1.05l9.62,9.42a.63.63,0,0,1,0,.9l-9.62,9.42a1.44,1.44,0,0,0-.45,1.05,1.49,1.49,0,0,0,2.55,1L39.44,21.22A1.74,1.74,0,0,0,39.44,18.79Z"/><path d="M23.16,4.12a1.53,1.53,0,0,0-.3,0,1.54,1.54,0,0,0-1.51,1.24L15.63,34.07a1.53,1.53,0,0,0,1.21,1.81l.3,0a1.54,1.54,0,0,0,1.51-1.24L24.37,5.93A1.54,1.54,0,0,0,23.16,4.12Z"/></svg>