<svg id="图层_1" data-name="图层 1" xmlns="http://www.w3.org/2000/svg" viewBox="0 0 40 40"><title>幻数</title><path d="M24.74,24.34a1.57,1.57,0,0,0-1.41.88l0,.11A10.45,10.45,0,0,1,18.89,30a10.6,10.6,0,0,1-5.13,1.33h-.47a10.6,10.6,0,0,1-9.72-13.5A10.67,10.67,0,0,1,6.26,13.2a1.53,1.53,0,0,0,.5-1.09,1.61,1.61,0,0,0-1.59-1.66,1.57,1.57,0,0,0-1,.37c-.06,0-.29.29-.29.29A14,14,0,0,0,1.39,14.6,13.78,13.78,0,0,0,.16,18.44,13.33,13.33,0,0,0,1.29,26.2a14.37,14.37,0,0,0,4.77,5.92,13.16,13.16,0,0,0,2.48,1.33,13.7,13.7,0,0,0,4.59,1h.61a14.07,14.07,0,0,0,5.25-1,15.55,15.55,0,0,0,1.42-.69,14,14,0,0,0,5.68-6,1.38,1.38,0,0,0,.13-.28,1.5,1.5,0,0,0,.11-.48,1.56,1.56,0,0,0-.42-1.14A1.61,1.61,0,0,0,24.74,24.34Z"/><path d="M8.59,10.64a1.34,1.34,0,0,0,.35,0H9a1.6,1.6,0,0,0,1-.34l.1-.08c.26-.19.47-.34.73-.5a1.58,1.58,0,0,0,.73-.95,1.55,1.55,0,0,0-.15-1.21,1.57,1.57,0,0,0-1-.75A1.89,1.89,0,0,0,10,6.81,1.59,1.59,0,0,0,9.3,7L9,7.21c-.22.14-.43.3-.68.48A1.48,1.48,0,0,0,7.86,8a1.58,1.58,0,0,0-.39.67A1.61,1.61,0,0,0,8.59,10.64Z"/><path d="M38.71,13.75a14.39,14.39,0,0,0-4.77-5.92A12.11,12.11,0,0,0,31.46,6.5a13.7,13.7,0,0,0-4.59-1l-.61,0a13.88,13.88,0,0,0-5.25,1,11.64,11.64,0,0,0-1.42.69,14,14,0,0,0-5.68,6,1.51,1.51,0,0,0-.13.29,1.45,1.45,0,0,0-.11.47,1.6,1.6,0,0,0,1.59,1.66,1.58,1.58,0,0,0,1.41-.87l0-.12A10.4,10.4,0,0,1,21.1,10a10.57,10.57,0,0,1,5.14-1.34h.47a10.6,10.6,0,0,1,7,18.08,1.59,1.59,0,0,0,1,2.75h.07a1.57,1.57,0,0,0,1-.37l.29-.3a13.93,13.93,0,0,0,2.48-3.48,13.78,13.78,0,0,0,1.23-3.84A13.32,13.32,0,0,0,38.71,13.75Z"/><path d="M31.42,29.31a1.56,1.56,0,0,0-.42-.06,1.65,1.65,0,0,0-1,.33l-.11.08a8.45,8.45,0,0,1-.72.5,1.61,1.61,0,0,0-.73.95,1.55,1.55,0,0,0,.15,1.21,1.59,1.59,0,0,0,1,.76,1.33,1.33,0,0,0,.34.05H30A1.59,1.59,0,0,0,30.7,33l.35-.23c.22-.13.42-.29.68-.47a1.92,1.92,0,0,0,.41-.31,1.64,1.64,0,0,0,.39-.67A1.61,1.61,0,0,0,31.42,29.31Z"/></svg>