<svg id="图层_1" data-name="图层 1" xmlns="http://www.w3.org/2000/svg" viewBox="0 0 40 40"><title>监控中心</title><path d="M27.87,12.33a13.09,13.09,0,0,0-7.41-2.62l-.55,0a12.47,12.47,0,0,0-3.53.52A13.7,13.7,0,0,0,8,17.29a1.08,1.08,0,0,0,0,1.07,13.5,13.5,0,0,0,3.67,4.58,13.43,13.43,0,0,0,8.49,3h.11a13.91,13.91,0,0,0,1.59-.14,13.25,13.25,0,0,0,6.05-2.52A14,14,0,0,0,32,18.43a1.28,1.28,0,0,0,0-1.2A14.19,14.19,0,0,0,27.87,12.33ZM29.2,17.9a11.14,11.14,0,0,1-2.94,3.25,10.43,10.43,0,0,1-4.8,2c-.26,0-.55.06-.8.08l-.24,0h-.29a10.73,10.73,0,0,1-6.78-2.42,11,11,0,0,1-2.54-2.95l0-.05,0,0a10.79,10.79,0,0,1,6.35-5,9.8,9.8,0,0,1,2.69-.41l0,0h.48a10.36,10.36,0,0,1,5.91,2.11A10.78,10.78,0,0,1,29.2,17.8l0,.05Z"/><path d="M17.37,15.2a3.72,3.72,0,0,0,0,5.25A3.66,3.66,0,0,0,20,21.54a3.72,3.72,0,0,0,2.63-6.34A3.74,3.74,0,0,0,17.37,15.2Zm3.56,3.56a1.31,1.31,0,1,1,0-1.86A1.32,1.32,0,0,1,20.93,18.76Z"/><path d="M36.08,4H3.92A3.93,3.93,0,0,0,0,7.92V27.61a3.93,3.93,0,0,0,3.92,3.92H18.69v1.86H8.94a1.31,1.31,0,0,0,0,2.61H31.06a1.3,1.3,0,0,0,1.3-1.31,1.3,1.3,0,0,0-1.3-1.3H21.31V31.53H36.08A3.93,3.93,0,0,0,40,27.61V7.92A3.93,3.93,0,0,0,36.08,4Zm1.33,22.8a2.11,2.11,0,0,1-2.11,2.11H4.75A2.1,2.1,0,0,1,2.64,26.8V8.73A2.11,2.11,0,0,1,4.75,6.62H35.3a2.12,2.12,0,0,1,2.11,2.11Z"/></svg>