<svg id="图层_1" data-name="图层 1" xmlns="http://www.w3.org/2000/svg" viewBox="0 0 40 40"><title>用户关系管理</title><path d="M32.49,20.65a6.49,6.49,0,0,0,2.12-4.9,6.54,6.54,0,0,0-3.89-6,1.36,1.36,0,0,0-1.9,1h0a1.36,1.36,0,0,0,.79,1.43A4.09,4.09,0,0,1,32,15.88a3.89,3.89,0,0,1-2.9,3.84A1.4,1.4,0,0,0,28,21.08v.11a1.43,1.43,0,0,0,1.26,1.4,9.2,9.2,0,0,1,8,9.18v0a1.31,1.31,0,0,0,1.31,1.31h0a1.31,1.31,0,0,0,1.31-1.24v-.09A11.78,11.78,0,0,0,32.49,20.65Z"/><path d="M21,21.76A9.71,9.71,0,0,0,24.37,10a9.93,9.93,0,0,0-9-6,9.74,9.74,0,0,0-9.8,9.8,9.56,9.56,0,0,0,4.2,8A15.39,15.39,0,0,0,.13,34.25a2.34,2.34,0,0,0,0,.59,1.66,1.66,0,0,0,.06.21,1.44,1.44,0,0,0,.19.37,1.42,1.42,0,0,0,.64.49,1.56,1.56,0,0,0,.4.11h.23A.94.94,0,0,0,1.9,36a1.39,1.39,0,0,0,.79-.6A2.79,2.79,0,0,0,3,34.29a13.25,13.25,0,0,1,.51-2,12.6,12.6,0,0,1,.8-1.85,12.29,12.29,0,0,1,1.06-1.69,12.39,12.39,0,0,1,1.29-1.51A13.09,13.09,0,0,1,8.14,26a12.78,12.78,0,0,1,1.69-1,11.36,11.36,0,0,1,1.84-.77,12,12,0,0,1,2-.46,13,13,0,0,1,2.07-.13A12.53,12.53,0,0,1,27.87,34.63a1,1,0,0,1,0,.17,1.35,1.35,0,0,0,2.69-.22v-.07A15.12,15.12,0,0,0,21,21.76Zm-5.6-1a7,7,0,1,1,7-7A6.93,6.93,0,0,1,15.38,20.78Z"/></svg>