<svg id="图层_1" data-name="图层 1" xmlns="http://www.w3.org/2000/svg" viewBox="0 0 40 40"><title>公共函数</title><path d="M15.94,27.68A3.28,3.28,0,0,1,13,25.18a1.14,1.14,0,0,1,.1-.85,1.08,1.08,0,0,1,.67-.53,1.09,1.09,0,0,1,1.38.76s.32.89.8.89c.19,0,.37-.33.45-.55l.11-.43c.26-1.07.88-3.64,1.42-5.85H16.48a1.12,1.12,0,1,1,0-2.23h2c.11-.47.22-.86.29-1.13l.14-.49c.35-1.19,1.07-3.65,3.16-3.65,1.88,0,2.52,1.81,2.59,2.77a1.13,1.13,0,0,1-.26.81,1.11,1.11,0,0,1-.77.39h0a1.14,1.14,0,0,1-1.2-1c0-.3-.17-.72-.36-.72,0,0-.43.06-1,2.05l-.06.19c0,.12-.11.4-.21.8h1.06a1.12,1.12,0,0,1,0,2.24H20.22c-.53,2.19-1.06,4.34-1.68,6.9A2.86,2.86,0,0,1,15.94,27.68Z"/><path d="M25.88,26a1.34,1.34,0,0,1-1.09-.58l-.77-1-.77,1a1.32,1.32,0,0,1-1,.58A1.14,1.14,0,0,1,21,24.82a1.23,1.23,0,0,1,.33-.83l1.17-1.38L21.48,21.4a1.34,1.34,0,0,1-.37-.89,1.16,1.16,0,0,1,1.17-1.18,1.36,1.36,0,0,1,1.09.57l.68.92.69-.91a1.36,1.36,0,0,1,1-.58A1.14,1.14,0,0,1,27,20.47a1.26,1.26,0,0,1-.32.81l-1.11,1.3,1.14,1.31a1.34,1.34,0,0,1,.37.89A1.15,1.15,0,0,1,25.88,26Z"/><path d="M12.69,37.78A10.56,10.56,0,0,1,5.06,35C-.25,29.65,2.15,18.9,10.53,10.5a32.64,32.64,0,0,1,4.59-3.85,1.27,1.27,0,1,1,1.45,2.09,30.19,30.19,0,0,0-4.24,3.56c-7.25,7.27-9.7,16.64-5.47,20.88C8.59,34.92,11.64,35.61,15,35a1.28,1.28,0,0,1,1.47,1,1.26,1.26,0,0,1-1,1.46A16.61,16.61,0,0,1,12.69,37.78Z"/><path d="M24.25,33.51a1.27,1.27,0,0,1-.73-2.32,30.11,30.11,0,0,0,4.15-3.49,29.49,29.49,0,0,0,4.91-6.44A21.83,21.83,0,0,0,34.71,16c1-3.91.43-7.17-1.57-9.18C31.43,5.1,28.7,4.43,25.47,4.94a1.28,1.28,0,0,1-.39-2.52c4.05-.63,7.56.29,9.86,2.6,2.66,2.66,3.45,6.78,2.24,11.59a24.53,24.53,0,0,1-2.38,5.88,31.79,31.79,0,0,1-5.33,7A32.47,32.47,0,0,1,25,33.28,1.26,1.26,0,0,1,24.25,33.51Z"/><path d="M27.51,37.76c-5.27,0-11.62-2.91-17-8.29a32.53,32.53,0,0,1-3.85-4.59,1.27,1.27,0,1,1,2.09-1.45,30.77,30.77,0,0,0,3.56,4.24c7.27,7.25,16.64,9.7,20.89,5.47C34.92,31.41,35.61,28.36,35,25a1.28,1.28,0,0,1,1-1.47,1.26,1.26,0,0,1,1.46,1c.73,4.26-.21,8.05-2.56,10.39A10.26,10.26,0,0,1,27.51,37.76Z"/><path d="M32.24,17a1.25,1.25,0,0,1-1-.55,30.41,30.41,0,0,0-3.5-4.15,30,30,0,0,0-6.44-4.91A21.83,21.83,0,0,0,16,5.29c-3.91-1-7.17-.43-9.18,1.57C5.1,8.57,4.43,11.3,4.94,14.53a1.28,1.28,0,0,1-2.52.39c-.64-4.05.29-7.56,2.6-9.86C7.68,2.4,11.8,1.61,16.61,2.82A24.37,24.37,0,0,1,22.49,5.2a31.72,31.72,0,0,1,7,5.33A32.59,32.59,0,0,1,33.28,15,1.28,1.28,0,0,1,33,16.8,1.31,1.31,0,0,1,32.24,17Z"/></svg>