<svg id="图层_1" data-name="图层 1" xmlns="http://www.w3.org/2000/svg" viewBox="0 0 40 40"><title>发布中心</title><path d="M18.06,38a1.3,1.3,0,0,1-.93-.42,1.37,1.37,0,0,1-.36-1V27.74l1.55-2.09.1-.14L31.1,8.66l-.36-.43L6.67,21.36l9.19,3.14-1.72,2.35L2.89,23a1.5,1.5,0,0,1-.5-.33A1.45,1.45,0,0,1,2,21.6a1.52,1.52,0,0,1,.48-1,1.37,1.37,0,0,1,.24-.18L36.15,2.15A1.13,1.13,0,0,1,36.72,2a1.24,1.24,0,0,1,1.14.77,1.43,1.43,0,0,1,.14.61v.33L33.3,31.79A1.35,1.35,0,0,1,32,32.92a1.7,1.7,0,0,1-.46-.07l-12.24-4.2v7.94A1.34,1.34,0,0,1,18.06,38Zm3.06-11.67L31,29.75,34.41,9.57l-.51-.22Z"/></svg>