<svg id="图层_1" data-name="图层 1" xmlns="http://www.w3.org/2000/svg" viewBox="0 0 40 40"><title>搜索引擎</title><path d="M1.67,31.09a1.43,1.43,0,0,1-.33-2.84.91.91,0,0,1,.33,0H12.28a1.43,1.43,0,1,1,.34,2.84,1.93,1.93,0,0,1-.34,0Z"/><path d="M1.58,6.84A1.53,1.53,0,0,1,0,5.42,1.52,1.52,0,0,1,1.58,4H25.45a1.51,1.51,0,0,1,1.6,1.42,1.52,1.52,0,0,1-1.6,1.42Z"/><path d="M1.67,23.13a1.43,1.43,0,1,1-.41-2.83,1.41,1.41,0,0,1,.41,0h8a1.43,1.43,0,1,1,.42,2.83,1.48,1.48,0,0,1-.42,0Z"/><path d="M1.58,15.18A1.53,1.53,0,0,1,0,13.76a1.52,1.52,0,0,1,1.6-1.42H12.19a1.51,1.51,0,0,1,1.6,1.42,1.52,1.52,0,0,1-1.6,1.42Z"/><path d="M38.84,36a1.18,1.18,0,0,1-.81-.33L33.43,31l-.28.2a10.77,10.77,0,0,1-6.29,2.1A10.48,10.48,0,1,1,37.34,22.82v0a10.3,10.3,0,0,1-2.1,6.22l-.21.28L39.65,34a1.16,1.16,0,0,1,0,1.62A1.11,1.11,0,0,1,38.84,36Zm-12-21.2a8.09,8.09,0,1,0,5.65,13.86l.08-.1A7.89,7.89,0,0,0,35,22.85a8.07,8.07,0,0,0-8.08-8.08h0Z"/></svg>