<svg id="图层_1" data-name="图层 1" xmlns="http://www.w3.org/2000/svg" viewBox="0 0 40 40"><title>资源管理</title><path d="M25.43,22.21A5.43,5.43,0,1,0,20,27.63,5.44,5.44,0,0,0,25.43,22.21ZM20,19.42a2.79,2.79,0,1,1-2.79,2.79A2.79,2.79,0,0,1,20,19.42Z"/><path d="M35.53,24.66a17,17,0,0,0,.19-2.45A15.82,15.82,0,0,0,25.65,7.54a5.65,5.65,0,0,0-11.3,0A15.84,15.84,0,0,0,4.28,22.21a17.07,17.07,0,0,0,.19,2.45,5.65,5.65,0,0,0,5.65,9.77,15.69,15.69,0,0,0,19.76,0,5.65,5.65,0,0,0,5.65-9.77Zm-3,7.81a3,3,0,0,1-.9-.14,3,3,0,0,1-2.12-2.87,3,3,0,0,1,3-3h.1a3,3,0,0,1-.1,6Zm-24.2-.14a3,3,0,0,1-2.94-5.08,3.29,3.29,0,0,1,1.94-.84v0h.1a3,3,0,0,1,3,3,3,3,0,0,1-2.12,2.87Zm4.75-2.87A5.66,5.66,0,0,0,7.45,23.8l-.43,0a12.54,12.54,0,0,1-.1-1.61,13.06,13.06,0,0,1,8-12,5.64,5.64,0,0,0,10.19,0,13.06,13.06,0,0,1,8,12.05,12.76,12.76,0,0,1-.1,1.61l-.43,0a5.66,5.66,0,0,0-5.65,5.66,5.59,5.59,0,0,0,1,3.18,13.06,13.06,0,0,1-15.77,0A5.65,5.65,0,0,0,13.1,29.46ZM23,7.72a3,3,0,1,1-6,0,2.61,2.61,0,0,1,.08-.67,3,3,0,0,1,5.87,0A3.11,3.11,0,0,1,23,7.72Z"/></svg>