<svg id="图层_1" data-name="图层 1" xmlns="http://www.w3.org/2000/svg" viewBox="0 0 40 40"><title>1123-内页icon整体大小调整-40px的副本</title><path d="M29.43,12.65a10.64,10.64,0,1,0-18.17,7.51,11,11,0,0,0,1.21,1l.42.32-.49.21A17.1,17.1,0,0,0,2.06,36.18a1.48,1.48,0,0,0-.06.38A1.43,1.43,0,0,0,3.44,38h0a1.49,1.49,0,0,0,1.46-1.51l0-.08A14.35,14.35,0,0,1,18.11,23.26l.69,0H19c.28,0,.56,0,.84-.05a10.82,10.82,0,0,0,3.06-.76A10.62,10.62,0,0,0,29.43,12.65ZM21.75,19.8a7.74,7.74,0,1,1,4.79-7.15A7.7,7.7,0,0,1,21.75,19.8Z"/><path d="M36.91,27.34H35.74V26.16a5.05,5.05,0,0,0-10.1,0v1.18H24.47a1.09,1.09,0,0,0-1.09,1.09v7.92A1.66,1.66,0,0,0,25,38H36.35A1.65,1.65,0,0,0,38,36.35V28.43A1.09,1.09,0,0,0,36.91,27.34Zm-9.09-1.18a2.87,2.87,0,0,1,5.74,0v1.18H27.82Zm-2.27,9.7V29.51H35.83l0,6.31Z"/><path d="M32.91,31.73H28.46a1.11,1.11,0,0,0,0,2.21h4.45a1.11,1.11,0,1,0,0-2.21Z"/></svg>