<svg id="图层_1" data-name="图层 1" xmlns="http://www.w3.org/2000/svg" viewBox="0 0 40 40"><title>服务中心</title><path d="M10.15,16.58l8.49,4.55v8.4a1.35,1.35,0,1,0,2.7,0L21.29,21l8.57-4.38a1.28,1.28,0,0,0,.65-1.49,1.36,1.36,0,0,0-1.29-1.05,1.32,1.32,0,0,0-.68.19l-8.63,4.49-8.43-4.55a1.43,1.43,0,0,0-.7-.2,1.36,1.36,0,0,0-1.29,1.06A1.28,1.28,0,0,0,10.15,16.58Z"/><path d="M36.14,9.48l-14.3-7A3.76,3.76,0,0,0,20,2a3.69,3.69,0,0,0-1.87.5L3.85,9.35A3.79,3.79,0,0,0,2,12.59V27.34a3.76,3.76,0,0,0,1.9,3.27l14.23,6.9A3.69,3.69,0,0,0,20,38a3.73,3.73,0,0,0,1.83-.48L36.1,30.74A3.76,3.76,0,0,0,38,27.48V12.73A3.79,3.79,0,0,0,36.14,9.48ZM4.7,27.34V12.59a1,1,0,0,1,.5-.89L19.44,4.85A1.07,1.07,0,0,1,20,4.71a1,1,0,0,1,.53.15l14.3,7a1,1,0,0,1,.51.9V27.48a1,1,0,0,1-.51.89L20.47,35.15a1,1,0,0,1-.51.14,1,1,0,0,1-.51-.14L5.22,28.25A1.05,1.05,0,0,1,4.7,27.34Z"/></svg>