<svg id="图层_1" data-name="图层 1" xmlns="http://www.w3.org/2000/svg" viewBox="0 0 40 40"><title>实时开发中心</title><path d="M31,33.74a1.3,1.3,0,0,1-.83-2.3A15.18,15.18,0,0,0,16.12,5.24a1.3,1.3,0,0,1-.75-2.49,17.77,17.77,0,0,1,16.5,30.68A1.26,1.26,0,0,1,31,33.74Z"/><path d="M22.29,2.63a15.82,15.82,0,0,0-2.73-.24,5.23,5.23,0,0,0-1.06.09h-.22l.58-.61a1.18,1.18,0,0,0,0-1.75A1.28,1.28,0,0,0,18-.24a1.23,1.23,0,0,0-.89.41L13.85,3.54a1.34,1.34,0,0,0-.3.54.82.82,0,0,0-.05.41,1.05,1.05,0,0,0,.08.36l0,.1a.49.49,0,0,0,0,.11,1.21,1.21,0,0,0,1,.63,1.09,1.09,0,0,0,.4-.07"/><path d="M19.48,37.46A17.78,17.78,0,0,1,7.88,6.22a1.3,1.3,0,0,1,1.7,2A15.18,15.18,0,0,0,24.15,34.13a1.3,1.3,0,0,1,.79,2.47A17.69,17.69,0,0,1,19.48,37.46Z"/><path d="M18,36.85a15.74,15.74,0,0,0,2.73.19,5.29,5.29,0,0,0,1.06-.11l.22,0-.57.62a1.17,1.17,0,0,0,.06,1.75,1.23,1.23,0,0,0,.87.36,1.24,1.24,0,0,0,.89-.43l3.15-3.43a1.34,1.34,0,0,0,.3-.54,1,1,0,0,0,0-.41,1.06,1.06,0,0,0-.09-.36l0-.1a.76.76,0,0,0,0-.11,1.23,1.23,0,0,0-1.06-.61,1.1,1.1,0,0,0-.4.08"/><path d="M26.16,17.5H23.07l-3.91-3.92H13.6a1.3,1.3,0,1,1,0-2.6h6.63l3.92,3.92h2a1.3,1.3,0,1,1,0,2.6Z"/><path d="M18.73,20.71H13.59a1.3,1.3,0,0,1,0-2.6h5.14a1.3,1.3,0,0,1,0,2.6Z"/><path d="M18.57,28.5h-5a1.3,1.3,0,0,1,0-2.6h3.91l4.65-4.65h7.24a1.3,1.3,0,0,1,0,2.6H23.22Z"/></svg>