<svg id="图层_1" data-name="图层 1" xmlns="http://www.w3.org/2000/svg" viewBox="0 0 40.1 40.1"><title>数据资产中心</title><path d="M33.05,38.28a5,5,0,0,1-1.38-.19A5.24,5.24,0,0,1,28,31.66a4.91,4.91,0,0,1,.5-1.21l-2.19-2.17a7.19,7.19,0,0,1-4.23,1.34,8,8,0,0,1-2-.26,7.55,7.55,0,0,1-4.86-4.12l-3,.82a3.85,3.85,0,0,1-.14,1.25A5.26,5.26,0,0,1,7,31.17,5,5,0,0,1,5.66,31,5.24,5.24,0,0,1,7,20.69a5.41,5.41,0,0,1,1.39.18,5.25,5.25,0,0,1,3.18,2.51l3-.81a6.41,6.41,0,0,1,.2-2.53,7.6,7.6,0,0,1,7.31-5.58l.66,0,.77-3a5.17,5.17,0,0,1-2.39-5.85,5.26,5.26,0,0,1,5.06-3.86A5,5,0,0,1,27.56,2a5.22,5.22,0,0,1,3.67,6.43,5.25,5.25,0,0,1-5.05,3.86l-.8,3a7.46,7.46,0,0,1,4,8.77,7.3,7.3,0,0,1-1.11,2.34l2.19,2.15a4.79,4.79,0,0,1,2.58-.73,5.33,5.33,0,0,1,1.38.18,5.26,5.26,0,0,1,3.67,6.44A5.26,5.26,0,0,1,33.05,38.28Zm0-7.7a2.46,2.46,0,0,0-2.37,1.81,2.46,2.46,0,0,0,1.72,3,2.37,2.37,0,0,0,.65.09,2.45,2.45,0,0,0,2.36-1.8,2.48,2.48,0,0,0-.23-1.87,2.46,2.46,0,0,0-1.49-1.15A2.35,2.35,0,0,0,33.06,30.58ZM7,23.48a2.45,2.45,0,0,0-.64,4.81,2.35,2.35,0,0,0,.64.09,2.45,2.45,0,0,0,.65-4.82A2.82,2.82,0,0,0,7,23.48Zm15.05-6.24a4.82,4.82,0,0,0-4.63,3.54,4.74,4.74,0,0,0,.46,3.64,4.81,4.81,0,0,0,2.9,2.25,4.9,4.9,0,0,0,1.26.17,4.8,4.8,0,0,0,1.27-9.43A5,5,0,0,0,22.09,17.24ZM26.18,4.61a2.46,2.46,0,0,0-2.37,1.81,2.42,2.42,0,0,0,.24,1.86,2.48,2.48,0,0,0,1.48,1.15,2.82,2.82,0,0,0,.65.08,2.45,2.45,0,0,0,.64-4.81A2.35,2.35,0,0,0,26.18,4.61Z"/><path d="M37.56,30.47a5.18,5.18,0,0,0-7.12-1.91l-2.19-2.2A7.66,7.66,0,0,0,29.35,24a7.5,7.5,0,0,0-4-8.78l.82-3h0a5.18,5.18,0,0,0,4.5-7.76,5.14,5.14,0,0,0-3.13-2.44,5.31,5.31,0,0,0-1.37-.18,5.19,5.19,0,0,0-2.62,9.67l-.82,3-.66,0a7.55,7.55,0,0,0-7.26,5.54,7.38,7.38,0,0,0-.24,2.57l-3,.78a5.26,5.26,0,0,0-3.16-2.48,5.19,5.19,0,0,0-2.74,10A5.31,5.31,0,0,0,7,31.12a5.19,5.19,0,0,0,5-3.82A5.57,5.57,0,0,0,12.23,26l3-.79a7.52,7.52,0,0,0,4.84,4.09,7.38,7.38,0,0,0,2,.26,7.47,7.47,0,0,0,4.26-1.32l2.21,2.22a5,5,0,0,0-.5,1.2,5.2,5.2,0,0,0,3.64,6.38,5.2,5.2,0,0,0,6.37-3.64A5.12,5.12,0,0,0,37.56,30.47Zm-6.92,1.91a2.51,2.51,0,0,1,2.42-1.85,3,3,0,0,1,.66.09,2.5,2.5,0,0,1-.66,4.92,2.39,2.39,0,0,1-.66-.09,2.46,2.46,0,0,1-1.52-1.17A2.52,2.52,0,0,1,30.64,32.38Zm-8.56-5.49a4.53,4.53,0,0,1-1.27-.18,4.85,4.85,0,0,1-3.4-5.95,4.86,4.86,0,0,1,4.68-3.57,4.64,4.64,0,0,1,1.27.18,4.85,4.85,0,0,1-1.28,9.52ZM28.59,7.72a2.49,2.49,0,0,1-2.41,1.84A2.51,2.51,0,0,1,24,8.3a2.47,2.47,0,0,1-.25-1.9,2.5,2.5,0,0,1,4.83,1.32Zm-24,17.55A2.5,2.5,0,0,1,7,23.43a2.39,2.39,0,0,1,.66.09,2.48,2.48,0,0,1,1.52,1.17,2.5,2.5,0,0,1-2.84,3.65,2.5,2.5,0,0,1-1.75-3.07Z"/></svg>