<svg id="图层_1" data-name="图层 1" xmlns="http://www.w3.org/2000/svg" viewBox="0 0 40 40"><title>任务中心</title><path d="M33.76,8.32A18,18,0,1,0,19.3,38H29.59a2.19,2.19,0,0,0,2.09-2.09l0-2.17A18.08,18.08,0,0,0,33.76,8.32Zm-4.42,24-.25.26v1.87a2.79,2.79,0,0,1-.12,1,4.4,4.4,0,0,1-.73.07H20A15.49,15.49,0,0,1,4.51,20.1,15.48,15.48,0,0,1,19.94,4.57V4.52l0,.05a15.42,15.42,0,0,1,9.35,27.72Z"/><path d="M21.56,15a1.24,1.24,0,1,0,0,2.47h8.68a1.24,1.24,0,1,0,0-2.47Z"/><path d="M30.24,23.47H21.56a1.24,1.24,0,1,0,0,2.48h8.68a1.24,1.24,0,1,0,0-2.48Z"/><path d="M13.5,20.75a4,4,0,0,0,0,7.93h0a4,4,0,0,0,0-7.93Zm1.16,5.1a1.82,1.82,0,0,1-1,.52l-.08-.05H13.5a1.61,1.61,0,1,1,1.16-.47Z"/><path d="M17.27,11.32a1.16,1.16,0,0,0-.82.34h0l-3.63,3.7-2.18-2.12a1.15,1.15,0,0,0-1-.53,1.17,1.17,0,0,0-.84,2h0v0h0l3.92,3.92.86-.86,4.24-4.31a1.16,1.16,0,0,0,.55-1A1.17,1.17,0,0,0,17.27,11.32Z"/></svg>