<svg id="图层_1" data-name="图层 1" xmlns="http://www.w3.org/2000/svg" viewBox="0 0 40 40"><title>1123-内页icon整体大小调整-40px的副本</title><path d="M29.43,12.65a10.64,10.64,0,1,0-18.17,7.51,11,11,0,0,0,1.21,1l.42.32-.49.21A17.1,17.1,0,0,0,2.06,36.18a1.48,1.48,0,0,0-.06.38A1.43,1.43,0,0,0,3.44,38h0a1.49,1.49,0,0,0,1.46-1.51l0-.08A14.35,14.35,0,0,1,18.11,23.26l.69,0H19c.28,0,.56,0,.84-.05a10.82,10.82,0,0,0,3.06-.76A10.62,10.62,0,0,0,29.43,12.65ZM18.79,20.39a7.75,7.75,0,1,1,0-15.5,7.75,7.75,0,0,1,0,15.5Z"/><path d="M28,32.22a1.16,1.16,0,0,0-.16-.73,5.61,5.61,0,0,0-.37-.6l-.4-.54-.43-.56-.39-.48h.9a.77.77,0,0,0,.69-.28,1,1,0,0,0,.2-.64,1.14,1.14,0,0,0-.18-.68.8.8,0,0,0-.71-.28H26.05V25.51l.45-.14L27,25.2a1.47,1.47,0,0,0,.76-.47,1,1,0,0,0,0-.77.9.9,0,0,0-.57-.6.92.92,0,0,0-.29,0,1.52,1.52,0,0,0-.62.15,9.26,9.26,0,0,1-1.41.48,16.51,16.51,0,0,1-1.73.35c-.95.14-1.09.67-1,1.08s.18.78.94.78l.33,0,.44-.06.38-.07v1.42H22.73a.85.85,0,0,0-.72.28,1.1,1.1,0,0,0-.2.68A1,1,0,0,0,22,29a.88.88,0,0,0,.7.27h1.14A12,12,0,0,1,23,31.22c-.36.62-.74,1.26-1.16,1.93a1.66,1.66,0,0,0-.29.84.84.84,0,0,0,.42.74,1.15,1.15,0,0,0,.59.18,1.06,1.06,0,0,0,.31,0,1.49,1.49,0,0,0,.7-.58c.18-.31.33-.57.44-.78s.12-.23.18-.36v3.92a.91.91,0,0,0,.25.75,1.07,1.07,0,0,0,.69.19,1.05,1.05,0,0,0,.69-.19,1,1,0,0,0,.24-.75V32.31c.06.11.12.23.19.34a.7.7,0,0,0,.59.41l.17,0a1.07,1.07,0,0,0,.65-.24A.81.81,0,0,0,28,32.22Z"/><path d="M37.77,36.06a1,1,0,0,0-.77-.27h-.23V25.14a3.72,3.72,0,0,0-.08-.84,1.06,1.06,0,0,0-.27-.54,1,1,0,0,0-.51-.27,3.92,3.92,0,0,0-.75-.06H30.43a3.88,3.88,0,0,0-.74.06,1,1,0,0,0-.52.27,1.06,1.06,0,0,0-.27.54,3.69,3.69,0,0,0-.08.83V35.79h-.43a.89.89,0,0,0-1,1,.93.93,0,0,0,.25.72,1.07,1.07,0,0,0,.75.23H37a1,1,0,0,0,.77-.25,1,1,0,0,0,.23-.7A1.08,1.08,0,0,0,37.77,36.06Zm-3.09-.27H30.87V33.62h3.81Zm0-4H30.87V29.56h3.81Zm0-4.07H30.87V25.59c0-.15,0-.18,0-.18a.65.65,0,0,1,.27,0h3.18c.24,0,.29,0,.29,0s0,0,0,.25Z"/></svg>