<svg id="图层_1" data-name="图层 1" xmlns="http://www.w3.org/2000/svg" viewBox="0 0 40 40"><title>澜图</title><path d="M25.17,34.25a1.78,1.78,0,0,1-1.54-.9L12.37,8.53A1.85,1.85,0,0,1,13,6a1.88,1.88,0,0,1,.88-.24,1.77,1.77,0,0,1,1.54.9L26.67,31.47A1.84,1.84,0,0,1,26.05,34,1.74,1.74,0,0,1,25.17,34.25Z"/><path d="M13.38,34.25A1.56,1.56,0,0,1,12,33.47L.23,8.14A1.58,1.58,0,0,1,.77,6a1.54,1.54,0,0,1,2.12.57L14.71,31.86A1.59,1.59,0,0,1,14.16,34,1.55,1.55,0,0,1,13.38,34.25Z"/><path d="M32.86,20.25A1.68,1.68,0,0,1,32,20a1.81,1.81,0,0,1-.66-2.47L36.71,6.6a1.78,1.78,0,0,1,1.51-.85,1.8,1.8,0,0,1,1.54,2.71L34.37,19.4A1.74,1.74,0,0,1,32.86,20.25Z"/></svg>